<mxfile host="app.diagrams.net" agent="Mozilla/5.0 (Windows NT 10.0; Win64; x64) AppleWebKit/537.36 (KHTML, like Gecko) Chrome/130.0.0.0 Safari/537.36 Edg/130.0.0.0" version="24.8.3" pages="4">
  <diagram id="ZJkWqv0zJh7wtnDvLdEq" name="Pagina-0">
    <mxGraphModel dx="1426" dy="755" grid="1" gridSize="10" guides="1" tooltips="1" connect="1" arrows="1" fold="1" page="1" pageScale="1" pageWidth="1169" pageHeight="827" math="0" shadow="0">
      <root>
        <mxCell id="0" />
        <mxCell id="1" parent="0" />
        <mxCell id="FNnh3zz3oXvTmGapNlax-1" style="edgeStyle=orthogonalEdgeStyle;rounded=0;orthogonalLoop=1;jettySize=auto;html=1;entryX=0;entryY=0.5;entryDx=0;entryDy=0;" edge="1" parent="1" source="FNnh3zz3oXvTmGapNlax-2" target="FNnh3zz3oXvTmGapNlax-3">
          <mxGeometry relative="1" as="geometry" />
        </mxCell>
        <mxCell id="FNnh3zz3oXvTmGapNlax-2" value="&lt;span style=&quot;font-size: 18px; font-weight: 700; text-align: left;&quot;&gt;JOY1DAT $dff00c&lt;/span&gt;" style="rounded=0;whiteSpace=wrap;html=1;" vertex="1" parent="1">
          <mxGeometry x="200" y="120" width="240" height="40" as="geometry" />
        </mxCell>
        <mxCell id="FNnh3zz3oXvTmGapNlax-3" value="&lt;b&gt;&lt;font style=&quot;font-size: 18px;&quot;&gt;port 1&lt;/font&gt;&lt;/b&gt;" style="rounded=0;whiteSpace=wrap;html=1;" vertex="1" parent="1">
          <mxGeometry x="760" y="120" width="240" height="40" as="geometry" />
        </mxCell>
        <mxCell id="FNnh3zz3oXvTmGapNlax-4" style="edgeStyle=orthogonalEdgeStyle;rounded=0;orthogonalLoop=1;jettySize=auto;html=1;entryX=0;entryY=0.5;entryDx=0;entryDy=0;" edge="1" parent="1" source="FNnh3zz3oXvTmGapNlax-5" target="FNnh3zz3oXvTmGapNlax-6">
          <mxGeometry relative="1" as="geometry" />
        </mxCell>
        <mxCell id="FNnh3zz3oXvTmGapNlax-5" value="&lt;span style=&quot;font-size: 18px; font-weight: 700; text-align: left;&quot;&gt;JOY0DAT $dff00a&lt;/span&gt;" style="rounded=0;whiteSpace=wrap;html=1;" vertex="1" parent="1">
          <mxGeometry x="200" y="40" width="240" height="40" as="geometry" />
        </mxCell>
        <mxCell id="FNnh3zz3oXvTmGapNlax-6" value="&lt;b&gt;&lt;font style=&quot;font-size: 18px;&quot;&gt;port 0&lt;/font&gt;&lt;/b&gt;" style="rounded=0;whiteSpace=wrap;html=1;" vertex="1" parent="1">
          <mxGeometry x="760" y="40" width="240" height="40" as="geometry" />
        </mxCell>
      </root>
    </mxGraphModel>
  </diagram>
  <diagram name="Pagina-1" id="hX7IKzC7I-knc1HPw3Yc">
    <mxGraphModel dx="1426" dy="755" grid="1" gridSize="10" guides="1" tooltips="1" connect="1" arrows="1" fold="1" page="1" pageScale="1" pageWidth="1169" pageHeight="827" math="0" shadow="0">
      <root>
        <mxCell id="0" />
        <mxCell id="1" parent="0" />
        <mxCell id="PvZLaN4Xy6BCdzeRFazo-1" value="JOY&lt;div style=&quot;font-size: 18px;&quot;&gt;RIGHT&lt;/div&gt;" style="rounded=0;whiteSpace=wrap;html=1;fontStyle=1;fontSize=18;" vertex="1" parent="1">
          <mxGeometry x="840" y="280" width="80" height="80" as="geometry" />
        </mxCell>
        <mxCell id="PvZLaN4Xy6BCdzeRFazo-2" value="1" style="rounded=0;whiteSpace=wrap;html=1;fontStyle=1;fontSize=18;" vertex="1" parent="1">
          <mxGeometry x="840" y="360" width="80" height="40" as="geometry" />
        </mxCell>
        <mxCell id="PvZLaN4Xy6BCdzeRFazo-3" value="JOY&lt;div style=&quot;font-size: 18px;&quot;&gt;LEFT&lt;/div&gt;" style="rounded=0;whiteSpace=wrap;html=1;fontStyle=1;fontSize=18;" vertex="1" parent="1">
          <mxGeometry x="200" y="280" width="80" height="80" as="geometry" />
        </mxCell>
        <mxCell id="PvZLaN4Xy6BCdzeRFazo-4" value="9" style="rounded=0;whiteSpace=wrap;html=1;fontStyle=1;fontSize=18;" vertex="1" parent="1">
          <mxGeometry x="200" y="360" width="80" height="40" as="geometry" />
        </mxCell>
        <mxCell id="PvZLaN4Xy6BCdzeRFazo-7" value="" style="rounded=0;whiteSpace=wrap;html=1;fontStyle=1;fontSize=18;" vertex="1" parent="1">
          <mxGeometry x="920" y="280" width="80" height="80" as="geometry" />
        </mxCell>
        <mxCell id="PvZLaN4Xy6BCdzeRFazo-8" value="0" style="rounded=0;whiteSpace=wrap;html=1;fontStyle=1;fontSize=18;" vertex="1" parent="1">
          <mxGeometry x="920" y="360" width="80" height="40" as="geometry" />
        </mxCell>
        <mxCell id="PvZLaN4Xy6BCdzeRFazo-9" value="" style="rounded=0;whiteSpace=wrap;html=1;fontStyle=1;fontSize=18;" vertex="1" parent="1">
          <mxGeometry x="760" y="280" width="80" height="80" as="geometry" />
        </mxCell>
        <mxCell id="PvZLaN4Xy6BCdzeRFazo-10" value="2" style="rounded=0;whiteSpace=wrap;html=1;fontStyle=1;fontSize=18;" vertex="1" parent="1">
          <mxGeometry x="760" y="360" width="80" height="40" as="geometry" />
        </mxCell>
        <mxCell id="PvZLaN4Xy6BCdzeRFazo-11" value="" style="rounded=0;whiteSpace=wrap;html=1;fontStyle=1;fontSize=18;" vertex="1" parent="1">
          <mxGeometry x="680" y="280" width="80" height="80" as="geometry" />
        </mxCell>
        <mxCell id="PvZLaN4Xy6BCdzeRFazo-12" value="3" style="rounded=0;whiteSpace=wrap;html=1;fontStyle=1;fontSize=18;" vertex="1" parent="1">
          <mxGeometry x="680" y="360" width="80" height="40" as="geometry" />
        </mxCell>
        <mxCell id="PvZLaN4Xy6BCdzeRFazo-13" value="" style="rounded=0;whiteSpace=wrap;html=1;fontStyle=1;fontSize=18;" vertex="1" parent="1">
          <mxGeometry x="600" y="280" width="80" height="80" as="geometry" />
        </mxCell>
        <mxCell id="PvZLaN4Xy6BCdzeRFazo-14" value="4" style="rounded=0;whiteSpace=wrap;html=1;fontStyle=1;fontSize=18;" vertex="1" parent="1">
          <mxGeometry x="600" y="360" width="80" height="40" as="geometry" />
        </mxCell>
        <mxCell id="PvZLaN4Xy6BCdzeRFazo-15" value="" style="rounded=0;whiteSpace=wrap;html=1;fontStyle=1;fontSize=18;" vertex="1" parent="1">
          <mxGeometry x="520" y="280" width="80" height="80" as="geometry" />
        </mxCell>
        <mxCell id="PvZLaN4Xy6BCdzeRFazo-16" value="5" style="rounded=0;whiteSpace=wrap;html=1;fontStyle=1;fontSize=18;" vertex="1" parent="1">
          <mxGeometry x="520" y="360" width="80" height="40" as="geometry" />
        </mxCell>
        <mxCell id="PvZLaN4Xy6BCdzeRFazo-17" value="" style="rounded=0;whiteSpace=wrap;html=1;fontStyle=1;fontSize=18;" vertex="1" parent="1">
          <mxGeometry x="440" y="280" width="80" height="80" as="geometry" />
        </mxCell>
        <mxCell id="PvZLaN4Xy6BCdzeRFazo-18" value="6" style="rounded=0;whiteSpace=wrap;html=1;fontStyle=1;fontSize=18;" vertex="1" parent="1">
          <mxGeometry x="440" y="360" width="80" height="40" as="geometry" />
        </mxCell>
        <mxCell id="PvZLaN4Xy6BCdzeRFazo-19" value="" style="rounded=0;whiteSpace=wrap;html=1;fontStyle=1;fontSize=18;" vertex="1" parent="1">
          <mxGeometry x="360" y="280" width="80" height="80" as="geometry" />
        </mxCell>
        <mxCell id="PvZLaN4Xy6BCdzeRFazo-20" value="7" style="rounded=0;whiteSpace=wrap;html=1;fontStyle=1;fontSize=18;" vertex="1" parent="1">
          <mxGeometry x="360" y="360" width="80" height="40" as="geometry" />
        </mxCell>
        <mxCell id="PvZLaN4Xy6BCdzeRFazo-21" value="" style="rounded=0;whiteSpace=wrap;html=1;fontStyle=1;fontSize=18;" vertex="1" parent="1">
          <mxGeometry x="280" y="280" width="80" height="80" as="geometry" />
        </mxCell>
        <mxCell id="PvZLaN4Xy6BCdzeRFazo-22" value="8" style="rounded=0;whiteSpace=wrap;html=1;fontStyle=1;fontSize=18;" vertex="1" parent="1">
          <mxGeometry x="280" y="360" width="80" height="40" as="geometry" />
        </mxCell>
      </root>
    </mxGraphModel>
  </diagram>
  <diagram name="Pagina-2" id="zocrvkxhMk55S5e1fA6v">
    <mxGraphModel dx="1426" dy="755" grid="1" gridSize="10" guides="1" tooltips="1" connect="1" arrows="1" fold="1" page="1" pageScale="1" pageWidth="1169" pageHeight="827" math="0" shadow="0">
      <root>
        <mxCell id="lzWETuZ7xj-CDpUTcD_T-0" />
        <mxCell id="lzWETuZ7xj-CDpUTcD_T-1" parent="lzWETuZ7xj-CDpUTcD_T-0" />
        <mxCell id="0xeOCCNHIPM5qPH92np8-10" value="1" style="rounded=0;whiteSpace=wrap;html=1;fontStyle=1;fontSize=18;" vertex="1" parent="lzWETuZ7xj-CDpUTcD_T-1">
          <mxGeometry x="760" y="240" width="80" height="40" as="geometry" />
        </mxCell>
        <mxCell id="0xeOCCNHIPM5qPH92np8-11" value="9" style="rounded=0;whiteSpace=wrap;html=1;fontStyle=1;fontSize=18;" vertex="1" parent="lzWETuZ7xj-CDpUTcD_T-1">
          <mxGeometry x="120" y="240" width="80" height="40" as="geometry" />
        </mxCell>
        <mxCell id="0xeOCCNHIPM5qPH92np8-35" style="edgeStyle=orthogonalEdgeStyle;rounded=0;orthogonalLoop=1;jettySize=auto;html=1;" edge="1" parent="lzWETuZ7xj-CDpUTcD_T-1" source="0xeOCCNHIPM5qPH92np8-12" target="0xeOCCNHIPM5qPH92np8-33">
          <mxGeometry relative="1" as="geometry" />
        </mxCell>
        <mxCell id="0xeOCCNHIPM5qPH92np8-12" value="0" style="rounded=0;whiteSpace=wrap;html=1;fontStyle=1;fontSize=18;" vertex="1" parent="lzWETuZ7xj-CDpUTcD_T-1">
          <mxGeometry x="840" y="240" width="80" height="40" as="geometry" />
        </mxCell>
        <mxCell id="0xeOCCNHIPM5qPH92np8-13" value="2" style="rounded=0;whiteSpace=wrap;html=1;fontStyle=1;fontSize=18;" vertex="1" parent="lzWETuZ7xj-CDpUTcD_T-1">
          <mxGeometry x="680" y="240" width="80" height="40" as="geometry" />
        </mxCell>
        <mxCell id="0xeOCCNHIPM5qPH92np8-14" value="3" style="rounded=0;whiteSpace=wrap;html=1;fontStyle=1;fontSize=18;" vertex="1" parent="lzWETuZ7xj-CDpUTcD_T-1">
          <mxGeometry x="600" y="240" width="80" height="40" as="geometry" />
        </mxCell>
        <mxCell id="0xeOCCNHIPM5qPH92np8-15" value="4" style="rounded=0;whiteSpace=wrap;html=1;fontStyle=1;fontSize=18;" vertex="1" parent="lzWETuZ7xj-CDpUTcD_T-1">
          <mxGeometry x="520" y="240" width="80" height="40" as="geometry" />
        </mxCell>
        <mxCell id="0xeOCCNHIPM5qPH92np8-16" value="5" style="rounded=0;whiteSpace=wrap;html=1;fontStyle=1;fontSize=18;" vertex="1" parent="lzWETuZ7xj-CDpUTcD_T-1">
          <mxGeometry x="440" y="240" width="80" height="40" as="geometry" />
        </mxCell>
        <mxCell id="0xeOCCNHIPM5qPH92np8-17" value="6" style="rounded=0;whiteSpace=wrap;html=1;fontStyle=1;fontSize=18;" vertex="1" parent="lzWETuZ7xj-CDpUTcD_T-1">
          <mxGeometry x="360" y="240" width="80" height="40" as="geometry" />
        </mxCell>
        <mxCell id="0xeOCCNHIPM5qPH92np8-18" value="7" style="rounded=0;whiteSpace=wrap;html=1;fontStyle=1;fontSize=18;" vertex="1" parent="lzWETuZ7xj-CDpUTcD_T-1">
          <mxGeometry x="280" y="240" width="80" height="40" as="geometry" />
        </mxCell>
        <mxCell id="0xeOCCNHIPM5qPH92np8-36" style="edgeStyle=orthogonalEdgeStyle;rounded=0;orthogonalLoop=1;jettySize=auto;html=1;" edge="1" parent="lzWETuZ7xj-CDpUTcD_T-1" source="0xeOCCNHIPM5qPH92np8-19" target="0xeOCCNHIPM5qPH92np8-34">
          <mxGeometry relative="1" as="geometry" />
        </mxCell>
        <mxCell id="0xeOCCNHIPM5qPH92np8-19" value="8" style="rounded=0;whiteSpace=wrap;html=1;fontStyle=1;fontSize=18;" vertex="1" parent="lzWETuZ7xj-CDpUTcD_T-1">
          <mxGeometry x="200" y="240" width="80" height="40" as="geometry" />
        </mxCell>
        <mxCell id="0xeOCCNHIPM5qPH92np8-20" value="1" style="rounded=0;whiteSpace=wrap;html=1;fontStyle=1;fontSize=18;" vertex="1" parent="lzWETuZ7xj-CDpUTcD_T-1">
          <mxGeometry x="840" y="360" width="80" height="40" as="geometry" />
        </mxCell>
        <mxCell id="0xeOCCNHIPM5qPH92np8-21" value="9" style="rounded=0;whiteSpace=wrap;html=1;fontStyle=1;fontSize=18;" vertex="1" parent="lzWETuZ7xj-CDpUTcD_T-1">
          <mxGeometry x="200" y="360" width="80" height="40" as="geometry" />
        </mxCell>
        <mxCell id="0xeOCCNHIPM5qPH92np8-22" value="0" style="rounded=0;whiteSpace=wrap;html=1;fontStyle=1;fontSize=18;" vertex="1" parent="lzWETuZ7xj-CDpUTcD_T-1">
          <mxGeometry x="920" y="360" width="80" height="40" as="geometry" />
        </mxCell>
        <mxCell id="0xeOCCNHIPM5qPH92np8-23" value="2" style="rounded=0;whiteSpace=wrap;html=1;fontStyle=1;fontSize=18;" vertex="1" parent="lzWETuZ7xj-CDpUTcD_T-1">
          <mxGeometry x="760" y="360" width="80" height="40" as="geometry" />
        </mxCell>
        <mxCell id="0xeOCCNHIPM5qPH92np8-24" value="3" style="rounded=0;whiteSpace=wrap;html=1;fontStyle=1;fontSize=18;" vertex="1" parent="lzWETuZ7xj-CDpUTcD_T-1">
          <mxGeometry x="680" y="360" width="80" height="40" as="geometry" />
        </mxCell>
        <mxCell id="0xeOCCNHIPM5qPH92np8-25" value="4" style="rounded=0;whiteSpace=wrap;html=1;fontStyle=1;fontSize=18;" vertex="1" parent="lzWETuZ7xj-CDpUTcD_T-1">
          <mxGeometry x="600" y="360" width="80" height="40" as="geometry" />
        </mxCell>
        <mxCell id="0xeOCCNHIPM5qPH92np8-26" value="5" style="rounded=0;whiteSpace=wrap;html=1;fontStyle=1;fontSize=18;" vertex="1" parent="lzWETuZ7xj-CDpUTcD_T-1">
          <mxGeometry x="520" y="360" width="80" height="40" as="geometry" />
        </mxCell>
        <mxCell id="0xeOCCNHIPM5qPH92np8-27" value="6" style="rounded=0;whiteSpace=wrap;html=1;fontStyle=1;fontSize=18;" vertex="1" parent="lzWETuZ7xj-CDpUTcD_T-1">
          <mxGeometry x="440" y="360" width="80" height="40" as="geometry" />
        </mxCell>
        <mxCell id="0xeOCCNHIPM5qPH92np8-28" value="7" style="rounded=0;whiteSpace=wrap;html=1;fontStyle=1;fontSize=18;" vertex="1" parent="lzWETuZ7xj-CDpUTcD_T-1">
          <mxGeometry x="360" y="360" width="80" height="40" as="geometry" />
        </mxCell>
        <mxCell id="0xeOCCNHIPM5qPH92np8-29" value="8" style="rounded=0;whiteSpace=wrap;html=1;fontStyle=1;fontSize=18;" vertex="1" parent="lzWETuZ7xj-CDpUTcD_T-1">
          <mxGeometry x="280" y="360" width="80" height="40" as="geometry" />
        </mxCell>
        <mxCell id="0xeOCCNHIPM5qPH92np8-31" value="" style="endArrow=classic;startArrow=classic;html=1;rounded=0;entryX=0.75;entryY=1;entryDx=0;entryDy=0;" edge="1" parent="lzWETuZ7xj-CDpUTcD_T-1">
          <mxGeometry width="50" height="50" relative="1" as="geometry">
            <mxPoint x="239.5" y="360" as="sourcePoint" />
            <mxPoint x="239.5" y="280" as="targetPoint" />
          </mxGeometry>
        </mxCell>
        <mxCell id="0xeOCCNHIPM5qPH92np8-32" value="&lt;font style=&quot;font-size: 18px;&quot;&gt;&lt;b&gt;EOR&lt;/b&gt;&lt;/font&gt;" style="edgeLabel;html=1;align=center;verticalAlign=middle;resizable=0;points=[];" vertex="1" connectable="0" parent="0xeOCCNHIPM5qPH92np8-31">
          <mxGeometry x="0.25" y="-2" relative="1" as="geometry">
            <mxPoint x="18" y="10" as="offset" />
          </mxGeometry>
        </mxCell>
        <mxCell id="0xeOCCNHIPM5qPH92np8-33" value="JOY&lt;div style=&quot;font-size: 18px;&quot;&gt;DOWN&lt;/div&gt;" style="rounded=0;whiteSpace=wrap;html=1;fontStyle=1;fontSize=18;" vertex="1" parent="lzWETuZ7xj-CDpUTcD_T-1">
          <mxGeometry x="840" y="80" width="80" height="80" as="geometry" />
        </mxCell>
        <mxCell id="0xeOCCNHIPM5qPH92np8-34" value="JOY&lt;div style=&quot;font-size: 18px;&quot;&gt;UP&lt;/div&gt;" style="rounded=0;whiteSpace=wrap;html=1;fontStyle=1;fontSize=18;" vertex="1" parent="lzWETuZ7xj-CDpUTcD_T-1">
          <mxGeometry x="200" y="80" width="80" height="80" as="geometry" />
        </mxCell>
        <mxCell id="0xeOCCNHIPM5qPH92np8-37" value="" style="endArrow=classic;startArrow=classic;html=1;rounded=0;entryX=0.75;entryY=1;entryDx=0;entryDy=0;" edge="1" parent="lzWETuZ7xj-CDpUTcD_T-1">
          <mxGeometry width="50" height="50" relative="1" as="geometry">
            <mxPoint x="879" y="360" as="sourcePoint" />
            <mxPoint x="879" y="280" as="targetPoint" />
          </mxGeometry>
        </mxCell>
        <mxCell id="0xeOCCNHIPM5qPH92np8-38" value="&lt;font style=&quot;font-size: 18px;&quot;&gt;&lt;b&gt;EOR&lt;/b&gt;&lt;/font&gt;" style="edgeLabel;html=1;align=center;verticalAlign=middle;resizable=0;points=[];" vertex="1" connectable="0" parent="0xeOCCNHIPM5qPH92np8-37">
          <mxGeometry x="0.25" y="-2" relative="1" as="geometry">
            <mxPoint x="18" y="10" as="offset" />
          </mxGeometry>
        </mxCell>
      </root>
    </mxGraphModel>
  </diagram>
  <diagram id="lVqvMSib6aaVr3SkzKxI" name="Pagina-3">
    <mxGraphModel dx="1426" dy="755" grid="1" gridSize="10" guides="1" tooltips="1" connect="1" arrows="1" fold="1" page="1" pageScale="1" pageWidth="1169" pageHeight="827" math="0" shadow="0">
      <root>
        <mxCell id="0" />
        <mxCell id="1" parent="0" />
        <mxCell id="2r47HkXzbxd7UJFzjY4V-1" value="" style="rounded=0;whiteSpace=wrap;html=1;fontStyle=1;fontSize=18;" vertex="1" parent="1">
          <mxGeometry x="760" y="120" width="80" height="80" as="geometry" />
        </mxCell>
        <mxCell id="2r47HkXzbxd7UJFzjY4V-2" value="1" style="rounded=0;whiteSpace=wrap;html=1;fontStyle=1;fontSize=18;" vertex="1" parent="1">
          <mxGeometry x="760" y="200" width="80" height="40" as="geometry" />
        </mxCell>
        <mxCell id="2r47HkXzbxd7UJFzjY4V-3" value="" style="rounded=0;whiteSpace=wrap;html=1;fontStyle=1;fontSize=18;" vertex="1" parent="1">
          <mxGeometry x="840" y="120" width="80" height="80" as="geometry" />
        </mxCell>
        <mxCell id="2r47HkXzbxd7UJFzjY4V-4" value="0" style="rounded=0;whiteSpace=wrap;html=1;fontStyle=1;fontSize=18;" vertex="1" parent="1">
          <mxGeometry x="840" y="200" width="80" height="40" as="geometry" />
        </mxCell>
        <mxCell id="2r47HkXzbxd7UJFzjY4V-5" value="" style="rounded=0;whiteSpace=wrap;html=1;fontStyle=1;fontSize=18;" vertex="1" parent="1">
          <mxGeometry x="680" y="120" width="80" height="80" as="geometry" />
        </mxCell>
        <mxCell id="2r47HkXzbxd7UJFzjY4V-6" value="2" style="rounded=0;whiteSpace=wrap;html=1;fontStyle=1;fontSize=18;" vertex="1" parent="1">
          <mxGeometry x="680" y="200" width="80" height="40" as="geometry" />
        </mxCell>
        <mxCell id="2r47HkXzbxd7UJFzjY4V-7" value="" style="rounded=0;whiteSpace=wrap;html=1;fontStyle=1;fontSize=18;" vertex="1" parent="1">
          <mxGeometry x="600" y="120" width="80" height="80" as="geometry" />
        </mxCell>
        <mxCell id="2r47HkXzbxd7UJFzjY4V-8" value="3" style="rounded=0;whiteSpace=wrap;html=1;fontStyle=1;fontSize=18;" vertex="1" parent="1">
          <mxGeometry x="600" y="200" width="80" height="40" as="geometry" />
        </mxCell>
        <mxCell id="2r47HkXzbxd7UJFzjY4V-9" value="" style="rounded=0;whiteSpace=wrap;html=1;fontStyle=1;fontSize=18;" vertex="1" parent="1">
          <mxGeometry x="520" y="120" width="80" height="80" as="geometry" />
        </mxCell>
        <mxCell id="2r47HkXzbxd7UJFzjY4V-10" value="4" style="rounded=0;whiteSpace=wrap;html=1;fontStyle=1;fontSize=18;" vertex="1" parent="1">
          <mxGeometry x="520" y="200" width="80" height="40" as="geometry" />
        </mxCell>
        <mxCell id="2r47HkXzbxd7UJFzjY4V-11" value="" style="rounded=0;whiteSpace=wrap;html=1;fontStyle=1;fontSize=18;" vertex="1" parent="1">
          <mxGeometry x="440" y="120" width="80" height="80" as="geometry" />
        </mxCell>
        <mxCell id="2r47HkXzbxd7UJFzjY4V-12" value="5" style="rounded=0;whiteSpace=wrap;html=1;fontStyle=1;fontSize=18;" vertex="1" parent="1">
          <mxGeometry x="440" y="200" width="80" height="40" as="geometry" />
        </mxCell>
        <mxCell id="2r47HkXzbxd7UJFzjY4V-13" value="FIRE1&lt;div&gt;port0&lt;/div&gt;" style="rounded=0;whiteSpace=wrap;html=1;fontStyle=1;fontSize=18;" vertex="1" parent="1">
          <mxGeometry x="360" y="120" width="80" height="80" as="geometry" />
        </mxCell>
        <mxCell id="2r47HkXzbxd7UJFzjY4V-14" value="6" style="rounded=0;whiteSpace=wrap;html=1;fontStyle=1;fontSize=18;" vertex="1" parent="1">
          <mxGeometry x="360" y="200" width="80" height="40" as="geometry" />
        </mxCell>
        <mxCell id="2r47HkXzbxd7UJFzjY4V-15" value="FIRE1&lt;div&gt;port1&lt;/div&gt;" style="rounded=0;whiteSpace=wrap;html=1;fontStyle=1;fontSize=18;" vertex="1" parent="1">
          <mxGeometry x="280" y="120" width="80" height="80" as="geometry" />
        </mxCell>
        <mxCell id="2r47HkXzbxd7UJFzjY4V-16" value="7" style="rounded=0;whiteSpace=wrap;html=1;fontStyle=1;fontSize=18;" vertex="1" parent="1">
          <mxGeometry x="280" y="200" width="80" height="40" as="geometry" />
        </mxCell>
        <mxCell id="5fmJY5m6FdKQwQGnOU_C-1" value="&lt;b&gt;&lt;font style=&quot;font-size: 18px;&quot;&gt;$bfe001&lt;/font&gt;&lt;/b&gt;" style="text;html=1;align=left;verticalAlign=middle;whiteSpace=wrap;rounded=0;" vertex="1" parent="1">
          <mxGeometry x="280" y="70" width="60" height="30" as="geometry" />
        </mxCell>
        <mxCell id="5fmJY5m6FdKQwQGnOU_C-2" value="" style="rounded=0;whiteSpace=wrap;html=1;fontStyle=1;fontSize=18;" vertex="1" parent="1">
          <mxGeometry x="760" y="380" width="80" height="80" as="geometry" />
        </mxCell>
        <mxCell id="5fmJY5m6FdKQwQGnOU_C-3" value="9" style="rounded=0;whiteSpace=wrap;html=1;fontStyle=1;fontSize=18;" vertex="1" parent="1">
          <mxGeometry x="760" y="460" width="80" height="40" as="geometry" />
        </mxCell>
        <mxCell id="5fmJY5m6FdKQwQGnOU_C-4" value="FIRE3&lt;div&gt;port0&lt;/div&gt;" style="rounded=0;whiteSpace=wrap;html=1;fontStyle=1;fontSize=18;" vertex="1" parent="1">
          <mxGeometry x="840" y="380" width="80" height="80" as="geometry" />
        </mxCell>
        <mxCell id="5fmJY5m6FdKQwQGnOU_C-5" value="8" style="rounded=0;whiteSpace=wrap;html=1;fontStyle=1;fontSize=18;" vertex="1" parent="1">
          <mxGeometry x="840" y="460" width="80" height="40" as="geometry" />
        </mxCell>
        <mxCell id="5fmJY5m6FdKQwQGnOU_C-6" value="FIRE2&lt;div&gt;port0&lt;/div&gt;" style="rounded=0;whiteSpace=wrap;html=1;fontStyle=1;fontSize=18;" vertex="1" parent="1">
          <mxGeometry x="680" y="380" width="80" height="80" as="geometry" />
        </mxCell>
        <mxCell id="5fmJY5m6FdKQwQGnOU_C-7" value="10" style="rounded=0;whiteSpace=wrap;html=1;fontStyle=1;fontSize=18;" vertex="1" parent="1">
          <mxGeometry x="680" y="460" width="80" height="40" as="geometry" />
        </mxCell>
        <mxCell id="5fmJY5m6FdKQwQGnOU_C-8" value="" style="rounded=0;whiteSpace=wrap;html=1;fontStyle=1;fontSize=18;" vertex="1" parent="1">
          <mxGeometry x="600" y="380" width="80" height="80" as="geometry" />
        </mxCell>
        <mxCell id="5fmJY5m6FdKQwQGnOU_C-9" value="11" style="rounded=0;whiteSpace=wrap;html=1;fontStyle=1;fontSize=18;" vertex="1" parent="1">
          <mxGeometry x="600" y="460" width="80" height="40" as="geometry" />
        </mxCell>
        <mxCell id="5fmJY5m6FdKQwQGnOU_C-10" value="FIRE3&lt;div&gt;port1&lt;/div&gt;" style="rounded=0;whiteSpace=wrap;html=1;fontStyle=1;fontSize=18;" vertex="1" parent="1">
          <mxGeometry x="520" y="380" width="80" height="80" as="geometry" />
        </mxCell>
        <mxCell id="5fmJY5m6FdKQwQGnOU_C-11" value="12" style="rounded=0;whiteSpace=wrap;html=1;fontStyle=1;fontSize=18;" vertex="1" parent="1">
          <mxGeometry x="520" y="460" width="80" height="40" as="geometry" />
        </mxCell>
        <mxCell id="5fmJY5m6FdKQwQGnOU_C-12" value="" style="rounded=0;whiteSpace=wrap;html=1;fontStyle=1;fontSize=18;" vertex="1" parent="1">
          <mxGeometry x="440" y="380" width="80" height="80" as="geometry" />
        </mxCell>
        <mxCell id="5fmJY5m6FdKQwQGnOU_C-13" value="13" style="rounded=0;whiteSpace=wrap;html=1;fontStyle=1;fontSize=18;" vertex="1" parent="1">
          <mxGeometry x="440" y="460" width="80" height="40" as="geometry" />
        </mxCell>
        <mxCell id="5fmJY5m6FdKQwQGnOU_C-14" value="FIRE2&lt;div&gt;port1&lt;/div&gt;" style="rounded=0;whiteSpace=wrap;html=1;fontStyle=1;fontSize=18;" vertex="1" parent="1">
          <mxGeometry x="360" y="380" width="80" height="80" as="geometry" />
        </mxCell>
        <mxCell id="5fmJY5m6FdKQwQGnOU_C-15" value="14" style="rounded=0;whiteSpace=wrap;html=1;fontStyle=1;fontSize=18;" vertex="1" parent="1">
          <mxGeometry x="360" y="460" width="80" height="40" as="geometry" />
        </mxCell>
        <mxCell id="5fmJY5m6FdKQwQGnOU_C-16" value="" style="rounded=0;whiteSpace=wrap;html=1;fontStyle=1;fontSize=18;" vertex="1" parent="1">
          <mxGeometry x="280" y="380" width="80" height="80" as="geometry" />
        </mxCell>
        <mxCell id="5fmJY5m6FdKQwQGnOU_C-17" value="15" style="rounded=0;whiteSpace=wrap;html=1;fontStyle=1;fontSize=18;" vertex="1" parent="1">
          <mxGeometry x="280" y="460" width="80" height="40" as="geometry" />
        </mxCell>
        <mxCell id="5fmJY5m6FdKQwQGnOU_C-20" value="&lt;b&gt;&lt;font style=&quot;font-size: 18px;&quot;&gt;POTGOR $dff016&lt;/font&gt;&lt;/b&gt;" style="text;html=1;align=left;verticalAlign=middle;whiteSpace=wrap;rounded=0;" vertex="1" parent="1">
          <mxGeometry x="280" y="330" width="160" height="30" as="geometry" />
        </mxCell>
      </root>
    </mxGraphModel>
  </diagram>
</mxfile>
